Normalized EMG Linear Envelopes
nRows=21
nColumns=17

endheader
time	        VM	        VL	        RF	       GRA	        TA	   ADDLONG	   SEMIMEM	      BFLH	        GM	        GL	       TFL	   GLUTMAX	   GLUTMED	      PIRI	    OBTINT	        QF	
2.1685	  0.115090	  0.099245	  0.213488	  0.646725	  0.194203	  0.468847	  0.138761	  0.069459	  0.405088	  0.291551	  0.333204	  0.015210	  0.081165	  0.209783	  1.044187	  0.169203	
2.169	  0.113993	  0.097520	  0.213897	  0.651791	  0.195635	  0.471095	  0.139871	  0.070473	  0.406176	  0.292595	  0.334719	  0.014945	  0.080845	  0.209031	  1.033689	  0.168745	
2.1695	  0.112914	  0.095824	  0.214285	  0.656817	  0.197101	  0.473291	  0.140976	  0.071495	  0.407233	  0.293606	  0.336237	  0.014689	  0.080517	  0.208296	  1.023118	  0.168288	
2.17	  0.111852	  0.094156	  0.214651	  0.661799	  0.198602	  0.475435	  0.142075	  0.072525	  0.408262	  0.294585	  0.337756	  0.014443	  0.080182	  0.207576	  1.012482	  0.167833	
2.1705	  0.110806	  0.092517	  0.214996	  0.666735	  0.200139	  0.477525	  0.143170	  0.073561	  0.409261	  0.295532	  0.339276	  0.014206	  0.079839	  0.206873	  1.001792	  0.167379	
2.171	  0.109775	  0.090907	  0.215318	  0.671622	  0.201711	  0.479561	  0.144258	  0.074603	  0.410232	  0.296446	  0.340796	  0.013979	  0.079490	  0.206188	  0.991057	  0.166926	
2.1715	  0.108759	  0.089324	  0.215618	  0.676455	  0.203319	  0.481540	  0.145341	  0.075652	  0.411175	  0.297327	  0.342314	  0.013762	  0.079134	  0.205520	  0.980285	  0.166473	
2.172	  0.107758	  0.087770	  0.215897	  0.681233	  0.204963	  0.483464	  0.146418	  0.076706	  0.412089	  0.298174	  0.343830	  0.013553	  0.078772	  0.204870	  0.969485	  0.166019	
2.1725	  0.106769	  0.086243	  0.216153	  0.685950	  0.206643	  0.485331	  0.147489	  0.077765	  0.412976	  0.298989	  0.345342	  0.013353	  0.078404	  0.204238	  0.958667	  0.165565	
2.173	  0.105794	  0.084744	  0.216388	  0.690604	  0.208359	  0.487141	  0.148553	  0.078829	  0.413834	  0.299770	  0.346849	  0.013162	  0.078031	  0.203626	  0.947839	  0.165109	
2.1735	  0.104832	  0.083273	  0.216602	  0.695191	  0.210111	  0.488895	  0.149610	  0.079897	  0.414665	  0.300517	  0.348350	  0.012979	  0.077654	  0.203032	  0.937009	  0.164652	
2.174	  0.103882	  0.081828	  0.216793	  0.699707	  0.211900	  0.490593	  0.150661	  0.080969	  0.415467	  0.301230	  0.349843	  0.012805	  0.077272	  0.202459	  0.926184	  0.164192	
2.1745	  0.102944	  0.080411	  0.216963	  0.704149	  0.213724	  0.492233	  0.151705	  0.082045	  0.416241	  0.301910	  0.351328	  0.012639	  0.076886	  0.201905	  0.915374	  0.163728	
2.175	  0.102018	  0.079020	  0.217111	  0.708512	  0.215585	  0.493817	  0.152743	  0.083124	  0.416987	  0.302555	  0.352803	  0.012481	  0.076497	  0.201373	  0.904585	  0.163261	
2.1755	  0.101104	  0.077657	  0.217238	  0.712793	  0.217482	  0.495343	  0.153773	  0.084206	  0.417704	  0.303167	  0.354267	  0.012332	  0.076105	  0.200861	  0.893824	  0.162790	
2.176	  0.100201	  0.076319	  0.217345	  0.716987	  0.219415	  0.496814	  0.154797	  0.085290	  0.418391	  0.303744	  0.355719	  0.012189	  0.075711	  0.200370	  0.883100	  0.162313	
2.1765	  0.099311	  0.075008	  0.217432	  0.721089	  0.221383	  0.498227	  0.155813	  0.086375	  0.419050	  0.304288	  0.357158	  0.012055	  0.075314	  0.199902	  0.872418	  0.161831	
2.177	  0.098431	  0.073723	  0.217500	  0.725095	  0.223387	  0.499585	  0.156822	  0.087462	  0.419679	  0.304798	  0.358583	  0.011928	  0.074916	  0.199456	  0.861785	  0.161343	
2.1775	  0.097563	  0.072465	  0.217551	  0.728999	  0.225426	  0.500888	  0.157824	  0.088550	  0.420278	  0.305276	  0.359993	  0.011808	  0.074517	  0.199034	  0.851207	  0.160849	
2.178	  0.096706	  0.071232	  0.217586	  0.732798	  0.227499	  0.502136	  0.158819	  0.089638	  0.420847	  0.305720	  0.361388	  0.011695	  0.074117	  0.198635	  0.840691	  0.160347	
2.1785	  0.095860	  0.070025	  0.217605	  0.736487	  0.229606	  0.503331	  0.159806	  0.090726	  0.421386	  0.306132	  0.362765	  0.011590	  0.073717	  0.198261	  0.830242	  0.159837	
